<svg xmlns="http://www.w3.org/2000/svg" xmlns:xlink="http://www.w3.org/1999/xlink" viewBox="0 0 512 512"><defs><style>.cls-1{fill:#fff;}.cls-2{fill:none;}.cls-3{clip-path:url(#clip-path);}.cls-4{fill:#212121;}.cls-5{mask:url(#mask);}.cls-6{fill:#ffd41c;}.cls-7{fill:#f8f5e8;}</style><clipPath id="clip-path"><rect class="cls-2" x="1" y="1" width="512" height="512"/></clipPath><mask id="mask" x="13" y="12" width="488" height="488" maskUnits="userSpaceOnUse"><g id="path-1-inside-1"><path class="cls-1" d="M20.62,12H493.37A7.62,7.62,0,0,1,501,19.62V492.38a7.63,7.63,0,0,1-7.62,7.63H20.62A7.63,7.63,0,0,1,13,492.38V19.63A7.62,7.62,0,0,1,20.62,12Z"/></g></mask></defs><title>USP_COD</title><g id="Layer_2" data-name="Layer 2"><g id="Layer_1-2" data-name="Layer 1"><g class="cls-3"><rect class="cls-4" width="512" height="512" rx="14.6" ry="14.6"/><g class="cls-5"><rect class="cls-6" x="13" y="12" width="488" height="488" rx="19.06" ry="19.06"/></g><path class="cls-4" d="M150.84,253.07c10.7,0,20.68-1.61,26.81-4.36a67.72,67.72,0,0,0-3-21.09c-4.34,2.27-11,3.53-17.84,3.53-14.09,0-22.47-8.31-22.47-22.35s8.38-22.1,22.47-22.1c6.84,0,13.5,1.25,17.84,3.52a63.88,63.88,0,0,0,3-21.09c-5.65-2.75-15.58-4.36-26.81-4.36-29.85,0-47.44,16.31-47.44,44S121,253.07,150.84,253.07Z"/><path class="cls-4" d="M185.89,279.72A6,6,0,0,0,175.72,284v25.39l-35.43-35.61a5.9,5.9,0,0,0-8.38,0l-15.4,15.48a6,6,0,0,0,0,8.42l35.43,35.61H126.68a6,6,0,0,0-4.22,10.22l19.79,19.89a5.85,5.85,0,0,0,4.22,1.73h55.05a6,6,0,0,0,5.95-6V303.86a6.21,6.21,0,0,0-1.73-4.25Z"/><path class="cls-7" d="M202.24,181.15C177.59,203.9,225.15,306,252,354.18l11.85-9.48c15-34.76,46-107.14,49.78-118.52,4.74-14.22-4.75-45-14.23-56.88s-23.7-16.6-47.4-16.6S233.05,152.7,202.24,181.15Z"/><path class="cls-4" d="M367,166.26H335.58v85.32H367c33.58,0,48.45-13.44,48.45-42.78C415.48,179.71,400.61,166.26,367,166.26Zm3.74,64.47h-6V187.05h6c10.23,0,15,6.75,15,21.69C385.75,223.86,381.06,230.73,370.77,230.73Z"/><path class="cls-4" d="M254.91,144a65.59,65.59,0,0,0-65.4,65.71c0,48.93,58,142.61,60.4,146.56a6,6,0,0,0,5.06,2.8,5.92,5.92,0,0,0,5-2.8c2.44-3.95,60.28-97.63,60.28-146.56A65.59,65.59,0,0,0,254.91,144ZM255,341.55c-14.21-24.14-53.57-94.34-53.57-131.8a53.51,53.51,0,1,1,107,0C308.41,247.27,269.17,317.41,255,341.55Z"/><path class="cls-4" d="M378.08,273.75a5.9,5.9,0,0,0-8.38,0l-35.43,35.61V284a6,6,0,0,0-10.17-4.24l-19.79,19.9a6,6,0,0,0-1.79,4.24v55.26a6,6,0,0,0,6,6h55a6.12,6.12,0,0,0,4.22-1.74l19.79-19.89a6,6,0,0,0-4.22-10.22H358l35.43-35.61a6,6,0,0,0,0-8.42Z"/><path class="cls-4" d="M255,233.67a23.9,23.9,0,1,0-23.78-23.9A23.83,23.83,0,0,0,255,233.67Z"/></g></g></g></svg>