<svg xmlns="http://www.w3.org/2000/svg" xmlns:xlink="http://www.w3.org/1999/xlink" viewBox="0 0 512 512"><defs><style>.cls-1{fill:#fff;}.cls-2{fill:#212121;}.cls-3{mask:url(#mask);}.cls-4{fill:#ffd41c;}.cls-5{fill:#f8f5e8;}.cls-6{fill:none;}</style><mask id="mask" x="13" y="12" width="488" height="488" maskUnits="userSpaceOnUse"><g id="path-1-inside-1"><path class="cls-1" d="M20.62,12H493.37A7.62,7.62,0,0,1,501,19.62V492.38a7.63,7.63,0,0,1-7.62,7.63H20.62A7.63,7.63,0,0,1,13,492.38V19.63A7.62,7.62,0,0,1,20.62,12Z"/></g></mask></defs><title>USP_30hari</title><g id="Layer_2" data-name="Layer 2"><g id="Layer_1-2" data-name="Layer 1"><rect class="cls-2" width="512" height="512" rx="14.6" ry="14.6"/><g class="cls-3"><rect class="cls-4" x="13" y="12" width="488" height="488" rx="16" ry="16"/></g><path class="cls-2" d="M156.55,155.25h24a5.93,5.93,0,0,0,4.09-1.63,5.54,5.54,0,0,0,1.7-3.94V103.1a5.47,5.47,0,0,0-1.72-4,5.77,5.77,0,0,0-1.89-1.21,5.88,5.88,0,0,0-2.23-.41H156.55a5.76,5.76,0,0,0-2.21.43,6,6,0,0,0-1.88,1.2,5.76,5.76,0,0,0-1.25,1.81,5.64,5.64,0,0,0-.43,2.14v46.25a5.36,5.36,0,0,0,.33,2.24,5.62,5.62,0,0,0,1.23,1.93,5.79,5.79,0,0,0,1.93,1.29,6,6,0,0,0,2.29.45Z"/><rect class="cls-5" x="113.78" y="199.11" width="289.19" height="199.11"/><path class="cls-2" d="M167.48,332.59A62.05,62.05,0,0,1,140.37,327a88.75,88.75,0,0,0-5.28,32.05,111.62,111.62,0,0,0,41.78,6.85c39,0,62-14.32,61.78-39a32.15,32.15,0,0,0-9.16-22.29A34.48,34.48,0,0,0,207,294.31a35.09,35.09,0,0,0,20.76-10.76,32.81,32.81,0,0,0,8.83-21.08c.41-22.29-21.85-35.22-59.76-35.22a102.16,102.16,0,0,0-39.71,7.24,87.66,87.66,0,0,0,5.29,32.05A52,52,0,0,1,167.54,261c13.87,0,21.39,3.73,21.39,10.42s-8.32,11.75-20.58,11.75H152.5a53.15,53.15,0,0,0,0,25.2h20c12,0,18.49,3.73,18.49,11.14C190.94,327.85,182.56,332.59,167.48,332.59Z"/><path class="cls-2" d="M312,365.92c41.56,0,66-25.47,66-69.15s-24.45-69.22-65.6-69.22-65.52,26-65.52,69.26S271,365.92,312,365.92ZM312.38,262c12.43,0,19.13,12.15,19.13,34.77s-6.93,34.78-19.13,34.78-19.24-12.37-19.24-34.78,7-34.74,19.24-34.74Z"/><path class="cls-2" d="M402.39,120.58h-24v28.93a17,17,0,0,1-5.28,12.24,18.38,18.38,0,0,1-12.69,5.1h-24a18.36,18.36,0,0,1-12.73-5.08,17.07,17.07,0,0,1-5.3-12.26V120.58H198.57v28.93a17.11,17.11,0,0,1-5.3,12.26,18.38,18.38,0,0,1-12.73,5.08h-24a18.4,18.4,0,0,1-12.7-5.1,17,17,0,0,1-5.28-12.24V120.58h-24a12.4,12.4,0,0,0-4.63.83A12.1,12.1,0,0,0,106,123.9a11.59,11.59,0,0,0-2.64,3.77,11.2,11.2,0,0,0-.93,4.45V398.05a11.38,11.38,0,0,0,.94,4.45,11.73,11.73,0,0,0,2.65,3.76,12,12,0,0,0,3.93,2.49,12.36,12.36,0,0,0,4.62.84h287.8a12.32,12.32,0,0,0,4.62-.84,12.1,12.1,0,0,0,3.94-2.49,11.7,11.7,0,0,0,2.64-3.76,11.38,11.38,0,0,0,.94-4.45V132.12a11.2,11.2,0,0,0-.93-4.45A11.59,11.59,0,0,0,411,123.9a12.1,12.1,0,0,0-3.94-2.49A12.37,12.37,0,0,0,402.39,120.58Zm0,277.47H114.59V201.49h287.8Z"/><path class="cls-2" d="M336.39,155.24h24a5.89,5.89,0,0,0,4.08-1.63,5.44,5.44,0,0,0,1.7-3.93V103.09a5.38,5.38,0,0,0-.44-2.13,5.49,5.49,0,0,0-1.25-1.81,5.83,5.83,0,0,0-1.88-1.21,6,6,0,0,0-2.21-.43h-24a6,6,0,0,0-4.08,1.64,5.45,5.45,0,0,0-1.69,3.94v46.25a5.34,5.34,0,0,0,.33,2.24,5.62,5.62,0,0,0,1.23,1.93,5.89,5.89,0,0,0,1.93,1.29,5.77,5.77,0,0,0,2.29.45Z"/><rect class="cls-6" width="512" height="512"/></g></g></svg>