<svg xmlns="http://www.w3.org/2000/svg" xmlns:xlink="http://www.w3.org/1999/xlink" viewBox="0 0 512 512"><defs><style>.cls-1{fill:#fff;}.cls-2{fill:none;}.cls-3{fill:#212121;}.cls-4{mask:url(#mask);}.cls-5{fill:#ffd41c;}.cls-6{clip-path:url(#clip-path);}.cls-7{fill:#f8f5e8;}</style><mask id="mask" x="13" y="12" width="488" height="488" maskUnits="userSpaceOnUse"><g id="path-1-inside-1"><path class="cls-1" d="M20.62,12H493.37A7.62,7.62,0,0,1,501,19.62V492.38a7.63,7.63,0,0,1-7.62,7.63H20.62A7.63,7.63,0,0,1,13,492.38V19.63A7.62,7.62,0,0,1,20.62,12Z"/></g></mask><clipPath id="clip-path"><rect class="cls-2" width="512" height="512"/></clipPath></defs><title>USP_garansi</title><g id="Layer_2" data-name="Layer 2"><g id="Layer_1-2" data-name="Layer 1"><rect class="cls-3" width="512" height="512" rx="14.6" ry="14.6"/><g class="cls-4"><rect class="cls-5" x="13" y="12" width="488" height="488" rx="19.06" ry="19.06"/></g><g class="cls-6"><path class="cls-7" d="M116.15,128c-11.38,1.9-9.49,35.56-7.12,52.15v37.92c0,23.71,14.23,90.08,16.6,109s73.48,92.45,132.74,94.82,87.7-49.78,97.18-56.89,37.93-66.37,42.67-83,0-78.23,0-116.15c0-30.34-7.9-37.93-11.85-37.93h-83c-21.33,0-35.55-21.33-45-26.07s-14.22,0-37.93,16.59S130.37,125.63,116.15,128Z"/><path class="cls-3" d="M379.78,121.66H356.54c-20.05,0-61.77,0-75.43-12.32L274,102.93a27.15,27.15,0,0,0-36,0l-7.12,6.41c-13.62,12.32-55.35,12.32-75.4,12.32H132.26c-14.72,0-26.7,10.81-26.7,24.12v83c0,30.42,4.89,87.74,37.58,130.13a182.34,182.34,0,0,0,64.67,52.69c20.95,10.1,39.07,13.67,48.21,13.67s27.26-3.57,48.21-13.67A182,182,0,0,0,368.9,358.9c32.7-42.39,37.59-99.71,37.59-130.13v-83C406.49,132.47,394.51,121.66,379.78,121.66Zm15.13,107.11c0,23.44-2.78,81.21-35.24,123.29-37.88,49.09-89,61.86-103.65,61.86s-65.8-12.77-103.65-61.86c-32.46-42.08-35.24-99.85-35.24-123.29v-83c0-7.21,7.18-12.77,15.13-12.77H155.5c26.16,0,66.64-.29,83.27-15.32l7.1-6.39a15.38,15.38,0,0,1,20.31,0l7.09,6.39c16.63,15,57.12,15.32,83.27,15.32h23.24c8,0,15.13,5.56,15.13,12.77Z"/><path class="cls-3" d="M369.44,147.19H351c-23.78,0-63.31.28-79.19-13.62l-6.52-5.68a14.42,14.42,0,0,0-18.6,0l-6.51,5.68c-15.89,13.9-55.41,13.62-79.2,13.62H142.56c-7.29,0-13.86,4.94-13.86,11.35v73.77c0,20.83,2.55,72.19,32.29,109.58,34.72,43.64,81.63,55,95,55s60.3-11.35,95-55c29.75-37.39,32.29-88.75,32.29-109.58V158.54C383.33,152.13,376.76,147.19,369.44,147.19ZM319.5,345.33H190.91a66.42,66.42,0,0,1,0-25.06c12.65-10.24,23.55-19.29,33-27.38h39.93c-8.16,7.29-17.42,15.07-27.9,23.47h83.6A75.7,75.7,0,0,1,319.5,345.33Zm.93-66.88a27.89,27.89,0,0,1,1.85-9.82,24.65,24.65,0,0,0,4.8,1.59,43.75,43.75,0,0,0,9.52,1.22c3.45,0,5.07-.71,5.07-2.21,0-1-.79-1.59-2.44-2l-10.12-2.33c-.58-.14-1.13-.31-1.65-.48-5.07-1.67-8-5.16-8-10.61s2.58-9.25,7.5-11.41a29.53,29.53,0,0,1,11.75-2A41.91,41.91,0,0,1,353.9,243a29.58,29.58,0,0,1-1.85,9.82c-2.86-1.28-9.17-2.39-13.86-2.39-3.15,0-4.45.54-4.45,1.76,0,.94.84,1.7,2.69,2.05l8.16,1.64c8.16,1.65,11.6,5.08,11.6,11.55,0,9.22-6.48,14.07-18.81,14.07a53.83,53.83,0,0,1-5.93-.39A47.9,47.9,0,0,1,320.43,278.45Zm-24.92-11.81h-1.68v14.14l-1.1.08c-1.21.11-2.45.2-3.73.26a60.22,60.22,0,0,1-9.08-.34V241.11H302.4a24.34,24.34,0,0,1,5.61.65,17.65,17.65,0,0,1,2.52.79,11.45,11.45,0,0,1,6.66,6.45,13.34,13.34,0,0,1,.89,4.82c0,5.08-2.57,10.41-7,11.78a7.39,7.39,0,0,1-2.23.36h-.4a7.12,7.12,0,0,1,2.2,1.11,15.29,15.29,0,0,1,4.34,5.19l4.89,8.52a58.44,58.44,0,0,1-10.65.31c-1.16-.09-2.29-.17-3.44-.31l-3-6.13c-.49-1-1.05-2-1.62-3C299.56,269.06,297.71,266.9,295.51,266.64Zm-18,14.14c-.26,0-.5.05-.76.05a55.91,55.91,0,0,1-8.39.29c-1.56-.06-3.12-.17-4.69-.37l-1.62-6.13H250.63L249,280.75c-1,.11-2,.2-3,.28a55.13,55.13,0,0,1-8.62-.08c-.72-.06-1.48-.12-2.2-.2l6.25-19.27,5-15.35,1.65-5a74.93,74.93,0,0,1,11.6-.34c1.65.06,3.3.17,4.95.34l2.81,8.65.89,2.76,9,27.78Zm-93.76-15v14.93a54.88,54.88,0,0,1-13.91,0V265.82L156.1,241.08a54,54,0,0,1,13.92,0l6.8,14.58,6.77-14.58a51.35,51.35,0,0,1,5.93-.4,54.84,54.84,0,0,1,8,.4l-8,14.47Zm17.31-7.37V241.08h33.39a29.54,29.54,0,0,1,.38,3.49,28.45,28.45,0,0,1-.38,6.44H215v5.25h18.28a24.06,24.06,0,0,1,0,9.34H215v5.25h19.45a27.17,27.17,0,0,1,0,9.93H201.1V258.45Zm112.27-30H277.63a36.38,36.38,0,0,0,.61-6.64c0-17.76-11.46-26.36-34.87-26.36-17,0-33.27,4.43-43.66,12.26a87.33,87.33,0,0,1-4-28.2c13.86-9.14,31.95-13.85,53-13.85,42.33,0,66.84,17.48,66.84,47.24A58,58,0,0,1,313.34,228.48Z"/><path class="cls-3" d="M256.38,252.45l-3.59,13.73h7.14l-1.47-5.7Z"/><path class="cls-3" d="M303.91,253.83a2.78,2.78,0,0,0-1.54-2.58,4.39,4.39,0,0,0-2.14-.54h-6.36V257h6.36C302.55,257,303.91,255.87,303.91,253.83Z"/><rect class="cls-2" width="512" height="512"/></g></g></g></svg>